<?xml version="1.0" encoding="UTF-8"?>
<svg xmlns="http://www.w3.org/2000/svg" xmlns:xlink="http://www.w3.org/1999/xlink" viewBox="0 0 100 100" width="80px" height="80px">
<g id="surface89133745">
<path style=" stroke:none;fill-rule:nonzero;fill:rgb(255, 255, 255);fill-opacity:1;" d="M 50 4 C 24.617188 4 4 24.617188 4 50 C 4 75.382812 24.617188 96 50 96 C 75.382812 96 96 75.382812 96 50 C 96 24.617188 75.382812 4 50 4 Z M 50 8 C 73.21875 8 92 26.78125 92 50 C 92 73.21875 73.21875 92 50 92 C 26.78125 92 8 73.21875 8 50 C 8 26.78125 26.78125 8 50 8 Z M 48 26 L 48 48 L 26 48 L 26 52 L 48 52 L 48 74 L 52 74 L 52 52 L 74 52 L 74 48 L 52 48 L 52 26 Z M 48 26 "/>
</g>
</svg>
